<svg width="20" height="20" viewBox="0 0 20 20" fill="none" xmlns="http://www.w3.org/2000/svg">
<path fill-rule="evenodd" clip-rule="evenodd" d="M9.24993 1.04166C6.4203 1.04166 4.23098 3.52168 4.58195 6.32946L4.64808 6.8585C4.74485 7.63263 4.46208 8.40587 3.88874 8.93495C2.70067 10.0313 2.37059 11.7762 3.07613 13.2308L3.16226 13.4083C3.78401 14.6901 5.04646 15.5296 6.4558 15.6174L6.6127 15.8863C7.4567 17.3332 8.7717 18.125 10.1526 18.125C11.5334 18.125 12.8484 17.3332 13.6924 15.8863L13.8518 15.6132C15.0358 15.5196 16.1153 14.8761 16.7592 13.8644C17.7443 12.3166 17.4834 10.286 16.139 9.03746L16.1024 9.00349C15.9385 8.85131 15.7969 8.68072 15.6792 8.49658C15.4933 8.20574 15.1068 8.12069 14.8159 8.3066C14.5251 8.49251 14.44 8.87899 14.626 9.16983C14.8001 9.44226 15.0096 9.69456 15.2518 9.91943L15.2883 9.9534C16.1907 10.7914 16.3658 12.1544 15.7046 13.1933C15.2362 13.9293 14.4243 14.375 13.5519 14.375H13.4978C13.4954 14.3749 13.4931 14.3749 13.4907 14.3749C13.4855 14.3749 13.4804 14.3749 13.4752 14.375H6.82991C6.82241 14.3749 6.81489 14.3749 6.80738 14.375H6.70117C5.6732 14.375 4.73557 13.7877 4.28693 12.8628L4.2008 12.6852C3.73574 11.7265 3.95331 10.5762 4.73644 9.85358C5.60624 9.05094 6.03523 7.87787 5.88843 6.70346L5.8223 6.17442C5.56459 4.1127 7.17217 2.29166 9.24993 2.29166H10.669C11.6011 2.29166 12.4367 2.65635 13.0545 3.24557C13.3043 3.4838 13.6999 3.47444 13.9382 3.22465C14.1764 2.97487 14.167 2.57925 13.9173 2.34102C13.0772 1.53978 11.9362 1.04166 10.669 1.04166H9.24993ZM10.1526 16.875C9.38495 16.875 8.56596 16.4897 7.93318 15.625H12.3719C11.7392 16.4897 10.9202 16.875 10.1526 16.875Z" fill="#EF233C"/>
<path d="M15.986 5.83332C15.986 6.7538 15.2398 7.49999 14.3193 7.49999C13.3989 7.49999 12.6527 6.7538 12.6527 5.83332C12.6527 4.91285 13.3989 4.16666 14.3193 4.16666C15.2398 4.16666 15.986 4.91285 15.986 5.83332Z" fill="#EF233C"/>
</svg>
